<?xml version="1.0" encoding="UTF-8" standalone="no"?>
<svg
   xmlns:dc="http://purl.org/dc/elements/1.1/"
   xmlns:cc="http://creativecommons.org/ns#"
   xmlns:rdf="http://www.w3.org/1999/02/22-rdf-syntax-ns#"
   xmlns:svg="http://www.w3.org/2000/svg"
   xmlns="http://www.w3.org/2000/svg"
   xmlns:sodipodi="http://sodipodi.sourceforge.net/DTD/sodipodi-0.dtd"
   xmlns:inkscape="http://www.inkscape.org/namespaces/inkscape"
   width="30px"
   height="36px"
   viewBox="0 0 30 36"
   version="1.1"
   id="svg79"
   sodipodi:docname="logo-rocketseat.svg"
   inkscape:version="0.92.3 (2405546, 2018-03-11)">
  <metadata
     id="metadata83">
    <rdf:RDF>
      <cc:Work
         rdf:about="">
        <dc:format>image/svg+xml</dc:format>
        <dc:type
           rdf:resource="http://purl.org/dc/dcmitype/StillImage" />
      </cc:Work>
    </rdf:RDF>
  </metadata>
  <sodipodi:namedview
     pagecolor="#ffffff"
     bordercolor="#666666"
     borderopacity="1"
     objecttolerance="10"
     gridtolerance="10"
     guidetolerance="10"
     inkscape:pageopacity="0"
     inkscape:pageshadow="2"
     inkscape:window-width="1366"
     inkscape:window-height="705"
     id="namedview81"
     showgrid="false"
     inkscape:zoom="14.5"
     inkscape:cx="15"
     inkscape:cy="29.034483"
     inkscape:window-x="0"
     inkscape:window-y="30"
     inkscape:window-maximized="1"
     inkscape:current-layer="svg79" />
  <!-- Generator: Sketch 50.2 (55047) - http://www.bohemiancoding.com/sketch -->
  <title
     id="title65">Group</title>
  <desc
     id="desc67">Created with Sketch.</desc>
  <defs
     id="defs69" />
  <g
     id="Home"
     stroke="none"
     stroke-width="1"
     fill="none"
     fill-rule="evenodd">
    <g
       transform="translate(-213.000000, -22.000000)"
       fill="#FFFFFF"
       id="Group-6">
      <g
         transform="translate(213.000000, 22.000000)"
         id="g75">
        <g
           id="Group">
          <path
             d="m 14.080054,23.569218 c -0.895453,-0.557451 -4.6739452,-2.900283 -4.6739452,-2.900283 0,0 -3.7767293,-2.346594 -4.6734161,-2.901716 -0.085651,-0.05302 -0.1950928,0.0068 -0.1998512,0.108552 -0.00987,0.212627 -0.024497,0.523774 -0.032427,0.69753 -0.0037,0.08437 0.017447,0.166948 0.061682,0.238421 0.1975601,0.319567 0.7796664,1.260891 1.0729225,1.735763 0.1104997,0.179129 0.1434557,0.396413 0.091114,0.600979 l -0.7579894,2.963695 c -0.030313,0.118941 0.011103,0.244153 0.1059176,0.320641 0.3907143,0.315089 0.8735999,0.661704 1.4558824,1.023008 0.58193,0.361483 1.1060548,0.63985 1.560214,0.849073 0.1101472,0.05069 0.2387992,0.03099 0.3288556,-0.05069 l 2.2478849,-2.03885 c 0.155264,-0.140796 0.360402,-0.210298 0.567655,-0.192027 0.549327,0.04819 1.638463,0.144379 2.008734,0.177159 0.08301,0.0073 0.165485,-0.01128 0.237566,-0.05338 0.148566,-0.08652 0.414153,-0.241646 0.5955,-0.347511 0.08688,-0.05069 0.08918,-0.177159 0.0037,-0.23036"
             id="Fill-22"
             style="fill:#000000"
             inkscape:connector-curvature="0" />
          <path
             d="M 7.7261917,27.318071 C 7.6873735,27.080531 7.537218,26.876038 7.323189,26.768728 6.7236255,26.467762 6.2468683,26.179943 6.1164748,26.099816 5.9860812,26.019689 5.5139116,25.724053 4.9741633,25.324305 4.7816607,25.181639 4.5323425,25.140598 4.3047272,25.21433 L 4.17451,25.256436 c -0.9042858,0.293149 -1.601071,1.024421 -1.8537417,1.946507 -0.6193255,2.260087 -1.7852807,6.51554 -2.30950178,8.428645 -0.0771069,0.281068 0.25919918,0.487693 0.47216951,0.290484 C 1.9343515,34.578741 5.161549,31.590579 6.875369,30.00349 7.5746245,29.356076 7.9024612,28.397924 7.7482474,27.454163 Z"
             id="Fill-24"
             style="fill:#000000"
             inkscape:connector-curvature="0" />
          <path
             d="m 29.850627,1.5854467 c 0.27439,-0.3677473 0.109897,-0.64628415 -0.01272,-0.76034481 0,0 -1.77e-4,-1.7878e-4 -3.54e-4,-3.5756e-4 C 29.708219,0.7221255 29.55097,0.6490051 29.370046,0.62129444 L 25.393945,0.0114811 c -0.368917,-0.056494 -0.738187,0.09832815 -0.959572,0.40207276 L 22.264691,3.389679 c -0.333756,0.4576728 -0.219442,1.0608714 0.169264,1.3851755 0.02827,0.023956 0.03604,0.065791 0.01643,0.098507 -0.01643,0.026995 -0.04771,0.040046 -0.07686,0.035577 L 21.279323,4.7410654 19.772031,4.5099048 C 19.352582,4.4457234 18.932604,4.6214626 18.680829,4.9670414 L 12.33875,13.666938 c -0.08251,0.113167 -0.23658,0.144095 -0.355489,0.07151 L 5.8781161,10.007521 C 5.4743927,9.7608072 4.9475205,9.898109 4.7127072,10.315378 c -0.228806,0.406542 -0.066257,0.926966 0.3293393,1.168854 l 0.157779,0.09636 c 0.078094,0.04755 0.1201452,0.138017 0.1065406,0.229373 l -0.1853418,1.243225 c -0.017668,0.119424 -0.1496515,0.181997 -0.2515982,0.119603 0,0 -0.8708764,-0.523821 -0.8931386,-0.537587 -0.7221083,-0.447303 -1.6659552,-0.217573 -2.1080191,0.513095 -0.3936524,0.650753 -0.255662,1.478319 0.2888787,1.967814 0.016785,0.01538 0.1747406,0.138375 0.2155547,0.163582 8.834e-4,5.37e-4 0.00177,0.0013 0.00265,0.0016 1.766e-4,1.79e-4 3.533e-4,3.58e-4 3.533e-4,3.58e-4 l 4.560749,2.825236 c 2.4652745,1.506566 4.3391866,0.271207 4.9241886,-0.171806 0.519275,-0.393313 1.109223,-0.827566 2.093354,-0.222937 0.352662,0.216858 0.797906,0.208813 1.153041,-0.0041 l 1.135373,-0.680609 c 0.334993,-0.200769 0.752144,-0.198981 1.085724,0.0046 l 3.45824,2.113519 c 0.13587,0.08295 0.311847,0.04773 0.406196,-0.08152 L 29.64532,7.4867451 c 0.689421,-0.9303632 0.179158,-1.3828515 -0.240821,-1.4940517 -0.02703,-0.00626 -0.05336,-0.013945 -0.08128,-0.018235 L 27.29595,5.6637411 C 27.26609,5.658914 27.236054,5.646042 27.208491,5.629058 27.09612,5.559692 27.060783,5.4105908 27.129514,5.2967089 27.816638,4.3575856 29.850627,1.5854467 29.850627,1.5854467"
             id="Fill-26"
             style="fill:#000000"
             inkscape:connector-curvature="0" />
        </g>
      </g>
    </g>
  </g>
</svg>
